PathFileType	4	(X/Y/Z)	D:\TRACE\spotREDO_2-26-24\spot_justArm_Motion_3_5-platform.trc
DataRate	CameraRate	NumFrames	NumMarkers	Units	OrigDataRate	OrigDataStartFrame	OrigNumFrames
100.00	100.00	      36	5	mm	100.00	876	      7000
Frame#	Time	Left_Front			Right_Front			Left_Aft			Right_Aft			Post			
		X1	Y1	Z1	X2	Y2	Z2	X3	Y3	Z3	X4	Y4	Z4	X5	Y5	Z5	

876	8.750	-706.95251	-21.12579	-579.71667	707.75970	-10.09462	-495.19757	-778.47186	22.42858	638.57928	790.76624	28.90722	642.96802	2.47442	594.09418	-1004.09973	
877	8.760	-707.02435	-21.18316	-579.72614	707.72437	-10.10975	-495.22324	-778.60931	22.50698	638.58643	790.65649	28.83295	642.63184	2.42904	593.99329	-1004.02734	
878	8.770	-707.07056	-21.25041	-579.79388	707.61676	-10.10618	-495.22400	-778.64697	22.54700	638.54620	790.62219	28.91362	642.63824	2.46428	593.89844	-1004.02399	
879	8.780	-707.13306	-21.30795	-579.81976	707.59766	-10.10499	-495.27155	-778.72229	22.66038	638.57996	790.60394	28.93438	642.62689	2.41930	593.74091	-1004.03137	
880	8.790	-707.20123	-21.43257	-579.85822	707.55560	-10.16122	-495.29025	-778.72662	22.73747	638.54401	790.57739	28.90836	642.57806	2.48574	593.59210	-1004.03534	
881	8.800	-707.25482	-21.48739	-579.86493	707.44696	-10.27084	-495.37726	-778.80560	22.82697	638.51929	790.45740	29.23530	642.88806	2.43330	593.48456	-1004.15350	
882	8.810	-707.32959	-21.61297	-579.90521	707.44000	-10.38434	-495.41400	-778.85699	22.87119	638.47186	790.34186	29.26157	642.85870	2.35746	593.33044	-1004.20990	
883	8.820	-707.37646	-21.71348	-579.93036	707.38220	-10.55387	-495.31516	-778.87476	22.97550	638.35358	790.34662	29.41713	642.81360	2.29370	593.14154	-1004.45239	
884	8.830	-707.41046	-21.86301	-579.97168	707.42297	-10.63908	-495.23618	-778.92078	23.17319	638.36316	790.23468	29.49792	642.68988	2.26415	592.94977	-1004.69183	
885	8.840	-707.47705	-22.00711	-579.99670	707.36664	-10.71324	-495.39331	-778.93317	23.37416	638.33624	790.23273	29.65835	642.66675	2.30933	592.74396	-1004.94299	
886	8.850	-707.47455	-22.08247	-579.99792	707.32257	-10.83897	-495.45975	-778.89673	23.53185	638.31360	790.26703	29.83880	642.66620	2.21633	592.77771	-1005.18054	
887	8.860	-707.44849	-22.28396	-579.98615	707.34814	-10.83796	-495.46033	-778.94818	23.63598	638.27173	790.38483	30.03321	642.63556	1.91602	592.04883	-1005.52948	
888	8.870	-707.37421	-22.46507	-580.05609	707.18286	-11.07419	-495.60501	-778.97858	23.79262	638.23749	790.52100	30.26209	642.64984	2.33157	591.67468	-1005.70850	
889	8.880	-707.39160	-22.65606	-580.08350	707.32574	-11.10468	-495.56064	-778.97339	24.08940	638.31158	790.54175	30.28494	642.42358	1.93717	591.46277	-1006.30969	
890	8.890	-707.39032	-22.87813	-580.16882	707.28058	-11.41231	-495.60895	-778.98816	24.09772	638.13861	790.48596	30.46573	642.42926	2.04928	591.32697	-1006.48322	
891	8.900	-707.36902	-23.01175	-580.21613	707.20319	-11.58239	-495.62808	-778.94360	24.41606	638.20337	790.39465	30.96138	642.49597	1.92788	591.16736	-1006.56757	
892	8.910	-707.37964	-23.16092	-580.18262	707.25134	-11.88479	-495.72247	-778.97113	24.43833	638.04456	790.37244	31.11136	642.40710	2.09704	590.89795	-1006.45331	
893	8.920	-707.37335	-23.34099	-580.20502	707.35468	-11.98539	-495.67932	-778.90643	24.70944	638.09106	790.34204	31.34568	642.34009	1.88818	590.53070	-1006.58588	
894	8.930	-707.31238	-23.48423	-580.26996	707.34320	-12.12420	-495.74872	-778.80438	24.95496	638.02692	790.43011	31.45175	642.28009	2.07860	590.18463	-1006.51044	
895	8.940	-707.39838	-23.69048	-580.35083	707.30280	-12.26180	-495.82379	-778.80267	25.15343	637.93683	790.46289	31.54891	642.21545	2.38522	589.73712	-1006.49481	
896	8.950	-707.39441	-23.91638	-580.38629	707.23975	-12.42090	-495.89648	-778.91455	25.35841	637.87817	790.32831	31.66169	642.14526	2.45648	589.38367	-1006.65692	
897	8.960	-707.42407	-24.07953	-580.45477	707.32483	-12.61667	-496.01266	-778.84680	25.58201	637.75183	790.40228	31.51621	641.93646	2.32700	589.09595	-1006.85803	
898	8.970	-707.46912	-24.24440	-580.48615	707.18787	-12.69572	-496.16287	-778.76965	25.72481	637.69464	790.16736	32.00416	642.05890	2.17248	588.75751	-1007.26917	
899	8.980	-707.43933	-24.50452	-580.52997	707.21234	-12.84937	-496.24417	-778.74689	25.90233	637.62701	790.21771	32.22554	641.98138	2.01519	588.50177	-1007.61633	
900	8.990	-707.48578	-24.70422	-580.68890	707.34991	-13.02388	-496.16550	-778.76923	26.14595	637.54785	790.29510	32.47998	641.89380	1.91820	588.01038	-1008.44482	
901	9.000	-707.41974	-25.03519	-580.75507	707.39520	-13.13070	-496.21448	-778.97717	26.65185	637.58734	790.38037	32.61585	641.79846	2.21951	587.51904	-1008.94452	
902	9.010	-707.34277	-25.27190	-580.78485	707.54907	-13.44140	-496.15225	-778.80615	26.74022	637.61938	790.48077	32.80873	641.69299	2.10518	587.21210	-1009.31207	
903	9.020	-707.28790	-25.43829	-580.83368	707.63623	-13.57745	-496.19910	-778.69843	26.63860	637.43842	790.67999	33.12048	641.60657	2.30441	586.91296	-1009.59497	
904	9.030	-707.26324	-25.57311	-580.82513	707.72852	-13.73173	-496.24948	-778.58099	26.81670	637.38312	790.99127	33.50961	641.61810	2.50047	586.59906	-1009.71118	
905	9.040	-707.19000	-25.71648	-580.83704	707.77856	-13.84539	-496.36810	-778.58777	26.95325	637.30353	791.17871	33.58516	641.42090	2.49716	586.31189	-1009.77643	
906	9.050	-707.07898	-25.92039	-580.85938	707.80688	-14.22462	-496.43985	-778.42963	27.27543	637.22015	791.12238	33.64190	641.34607	2.46824	585.86377	-1009.93146	
907	9.060	-706.92181	-26.16988	-580.91284	707.85602	-14.46999	-496.56555	-778.33307	27.53463	637.07434	791.00372	34.03113	641.51801	2.58213	585.42249	-1009.96936	
908	9.070	-706.76544	-26.41015	-580.98346	707.87842	-14.66238	-496.64926	-778.19000	27.84978	637.11237	791.25055	33.97316	641.34320	2.76965	585.15393	-1010.07507	
909	9.080	-706.65686	-26.58523	-580.96710	707.90424	-14.79123	-496.59946	-778.13232	27.95612	637.08478	791.31128	34.23193	641.09198	2.86470	584.91534	-1010.23718	
910	9.090	-706.63416	-26.66095	-580.97681	708.03888	-15.02737	-496.54910	-778.01233	28.13439	637.02008	791.31866	34.37386	640.98413	2.77383	584.66309	-1010.40710	
911	9.100	-706.59210	-26.85067	-581.03046	708.09753	-15.15244	-496.64587	-777.88440	28.31203	636.93604	791.52106	34.72415	640.79565	3.01511	584.35791	-1010.64545	
